<?xml version="1.0" encoding="utf-8"?>
<!-- Generator: Adobe Illustrator 22.0.1, SVG Export Plug-In . SVG Version: 6.00 Build 0)  -->
<svg version="1.1" id="Ebene_1" xmlns="http://www.w3.org/2000/svg" xmlns:xlink="http://www.w3.org/1999/xlink" x="0px" y="0px"
	 viewBox="0 0 551.8 470.7" style="enable-background:new 0 0 551.8 470.7;" xml:space="preserve">
<style type="text/css">
	.st0{fill:none;stroke:#FFFFFF;stroke-width:16;stroke-miterlimit:10;}
	.st1{fill:none;stroke:#FFFFFF;stroke-width:13;stroke-miterlimit:10;}
	.st2{fill:#FFFFFF;stroke:#FFFFFF;stroke-width:16;stroke-miterlimit:10;}
	.st3{fill:#FFFFFF;stroke:#FFFFFF;stroke-miterlimit:10;}
</style>
<g>
	<path class="st0" d="M325.1,154.3c11.2,0.6,22.5,4.9,28.1,15.1c4.1,7.5,4,17.5-1.2,24.3c-3.2,4.1-7.8,6.9-12.6,8.8
		c-13.1,5.2-35.2,6.5-45.9-4.6c-6.6-6.8-10-16.2-12-25.4c-5.2-24.5,7.7-46.5,31.5-54.5c17.8-6,40.5-4.8,57.6,2.9
		c39.1,17.8,40.9,75.2,19.5,109.3c-25.9,41.4-75.5,45.5-118.6,33.3c-51.5-14.5-77.9-62.9-75.6-114.8c2.4-53.8,40.9-108,90.3-129
		c80.1-34.2,181.8,10.6,225.5,82.3c33.4,54.7,40.1,123.7,23.4,185.7C518.7,348,480,401.8,424.3,431.4
		c-60.2,31.9-132.8,37.9-199.1,24.7c-11.1-2.2-22-5-32.8-8.3c-4-1.2-7.9-2.6-11.8-4C127,424.4,78.9,388,49.4,339.2
		c-23.7-39.2-34.5-84.5-38.7-129.7c-2.1-23.1-2.6-46.2-2.2-69.4l-0.3-27.9c13-1.7,35,0.2,48.1,0.6c37.1,1,74.1,2.9,111.2,4
		c11.6,0.4,23.2,0.7,34.7,1.1"/>
	<path class="st1" d="M191.4,173.1L80,180.6c0,0,13,164.2,171.1,180.8l10.1-48.2c0,0,47.5,7,68,3.1c20.5-3.9,20.5-3.9,20.5-3.9
		l11.7,89.7c0,0-54.7,23.4-116.6,8.9c-61.8-14.5-65.6-16.9-65.6-16.9l-17.5,47.1"/>
	<path class="st2" d="M386.5,235.4"/>
	<path class="st0" d="M430.2,427.9L395.7,296c0,0,19.1-10.1,36.4-30.4l31.5,44.5c0,0,41-51.2,35-94.9c-6.3-45.9-9.2-56.3-9.2-56.3
		l-45.3,10.3c0,0,5.4,15.7,2.8,30.5c-2.6,14.8-7.2,20.4-7.2,20.4l-39.3-15.3"/>
	<path class="st0" d="M312.3,208.5l-3.2,30.2l-9.9-1c-102.4-10.7-50-136.9-50-136.9l17.4,15.9c19.2-49.3,89.8-31.8,89.8-31.8l2.2-40
		c44.5-2.4,94.9,44.1,94.9,44.1L385.3,133"/>
	<circle class="st3" cx="79.8" cy="182.6" r="16"/>
	<circle class="st3" cx="154.1" cy="231.3" r="16"/>
	<circle class="st3" cx="141.1" cy="374.3" r="16"/>
	<circle class="st3" cx="248.5" cy="358" r="16"/>
	<circle class="st3" cx="262.3" cy="312.2" r="16"/>
	<circle class="st3" cx="349.7" cy="313.3" r="16"/>
	<circle class="st3" cx="356.5" cy="401.5" r="16"/>
	<circle class="st3" cx="181.5" cy="392.3" r="16"/>
	<circle class="st3" cx="396.6" cy="297.1" r="16"/>
	<circle class="st3" cx="435.2" cy="263.9" r="16"/>
	<circle class="st3" cx="464.6" cy="310.2" r="16"/>
	<circle class="st3" cx="490.1" cy="162.1" r="16"/>
	<circle class="st3" cx="445" cy="170.4" r="16"/>
	<circle class="st3" cx="441.8" cy="220.4" r="16"/>
	<circle class="st3" cx="453.4" cy="89.9" r="16"/>
	<circle class="st3" cx="361.7" cy="44.1" r="16"/>
	<circle class="st3" cx="357.3" cy="85.9" r="16"/>
	<circle class="st3" cx="244.3" cy="99.2" r="15"/>
	<circle class="st3" cx="310.2" cy="238.8" r="15"/>
	<circle class="st3" cx="331.1" cy="155.3" r="15"/>
	<path class="st0" d="M248.5,254l-31.4,58.3c0,0-50-18-63-81"/>
	<path class="st0" d="M15.9,247.9l35.1-9.7c0,0,15,92,93,138"/>
</g>
<g>
</g>
<g>
</g>
<g>
</g>
<g>
</g>
<g>
</g>
<g>
</g>
<g>
</g>
<g>
</g>
<g>
</g>
<g>
</g>
<g>
</g>
<g>
</g>
<g>
</g>
<g>
</g>
<g>
</g>
</svg>
